<svg version="1.1" id="Layer_1" xmlns="http://www.w3.org/2000/svg" xmlns:xlink="http://www.w3.org/1999/xlink" x="0px" y="0px"
	 viewBox="0 0 490.872 490.872" style="enable-background:new 0 0 490.872 490.872;" xml:space="preserve">
<g id="XMLID_496_">
	<g id="XMLID_488_">
		<g id="XMLID_419_">
			<polygon style="fill:#E9483D;" points="337.812,477.275 299.322,454.181 253.135,477.275 206.947,454.181 168.457,477.275 
				168.457,295.016 337.812,294.532 			"/>
		</g>
		<g id="XMLID_453_">
			<polyline style="fill:#ED6D64;" points="199.249,454.181 168.457,477.275 168.457,300.221 245.433,300.221 245.433,475.835 			
				"/>
		</g>
		<g id="XMLID_457_">
			<rect x="168.154" y="300.221" style="fill:#FFFFFF;" width="15.396" height="169.355"/>
		</g>
		<g id="XMLID_368_">
			<circle style="fill:#F7931E;" cx="245.437" cy="161.658" r="153.96"/>
		</g>
		<g id="XMLID_451_">
			<path style="fill:#FBB03B;" d="M245.437,315.617c-85.03,0-153.96-68.93-153.96-153.96s68.93-153.96,153.96-153.96"/>
		</g>
		<g id="XMLID_55_">
			<circle style="fill:#E9483D;" cx="245.437" cy="161.658" r="115.47"/>
		</g>
		<g id="XMLID_352_">
			<circle style="fill:#ED6D64;" cx="220.418" cy="159.733" r="94.3"/>
		</g>
		<g id="XMLID_489_">
			<rect x="137.665" y="103.278" style="fill:#FFFFFF;" width="15.396" height="116.52"/>
		</g>
		<g id="XMLID_491_">
			<rect x="99.175" y="92.375" style="fill:#FFFFFF;" width="15.396" height="138.564"/>
		</g>
		<g id="XMLID_321_">
			<path style="fill:#1D1D1B;" d="M245.437,284.826c-67.915,0-123.168-55.253-123.168-123.168S177.522,38.49,245.437,38.49
				s123.168,55.253,123.168,123.168S313.352,284.826,245.437,284.826z M245.437,53.886c-59.426,0-107.772,48.346-107.772,107.772
				S186.01,269.43,245.437,269.43s107.772-48.346,107.772-107.772S304.862,53.886,245.437,53.886z"/>
		</g>
		<g>
			<g id="XMLID_454_">
				<rect x="160.759" y="392.597" style="fill:#F7931E;" width="169.356" height="30.792"/>
			</g>
			<g id="XMLID_455_">
				<rect x="160.759" y="392.597" style="fill:#FBB03B;" width="61.584" height="30.792"/>
			</g>
			<path style="fill:#1D1D1B;" d="M407.094,161.658C407.094,72.519,334.575,0,245.437,0S83.779,72.519,83.779,161.658
				c0,54.817,27.431,103.34,69.281,132.586v196.628l46.525-27.915l45.851,22.925l45.851-22.925l46.525,27.915V294.243
				C379.662,264.997,407.094,216.474,407.094,161.658z M168.457,400.295h153.96v15.396h-153.96V400.295L168.457,400.295z
				 M291.961,445.405l-46.525,23.263l-46.525-23.263l-30.455,18.273v-32.591h153.96v32.591L291.961,445.405z M322.417,384.899
				h-153.96v-81.117c22.901,12.454,49.129,19.533,76.98,19.533s54.079-7.079,76.98-19.533V384.899z M245.437,307.919
				c-80.649,0-146.261-65.612-146.261-146.261S164.788,15.396,245.437,15.396s146.261,65.613,146.261,146.262
				S326.085,307.919,245.437,307.919z"/>
		</g>
	</g>
	<g id="XMLID_498_">
		<rect x="168.154" y="400.295" style="fill:#FFFFFF;" width="15.396" height="15.396"/>
	</g>
</g>
<g id="XMLID_53_">
	<path id="XMLID_750_" style="fill:#1D1D1B;" d="M241.234,113.079c3.969,4.293,5.961,9.491,5.961,15.588
		c0,6.097-2.015,11.318-6.029,15.655c-4.022,4.345-9.006,6.514-14.967,6.514c-5.954,0-10.923-2.146-14.892-6.442
		c-3.977-4.296-5.961-9.491-5.961-15.588s2.015-11.318,6.029-15.659c4.022-4.341,9.006-6.514,14.967-6.514
		C232.296,106.632,237.265,108.782,241.234,113.079z M297.631,108.989l-70.943,96.856h-17.877l70.943-96.856H297.631z
		 M231.95,135.94c1.481-1.891,2.218-4.225,2.218-6.999c0-2.77-0.782-5.101-2.353-6.995c-1.571-1.894-3.488-2.842-5.751-2.842
		s-4.135,0.947-5.616,2.842c-1.473,1.895-2.218,4.225-2.218,6.995c0,2.774,0.789,5.108,2.361,6.999
		c1.571,1.894,3.481,2.842,5.751,2.842C228.605,138.781,230.469,137.834,231.95,135.94z M296.248,169.194
		c3.969,4.296,5.954,9.495,5.954,15.591c0,6.097-2.007,11.314-6.029,15.655c-4.014,4.345-9.006,6.514-14.96,6.514
		c-5.961,0-10.923-2.146-14.9-6.443c-3.969-4.296-5.954-9.491-5.954-15.588s2.007-11.318,6.029-15.659
		c4.014-4.341,9.006-6.514,14.96-6.514C287.309,162.751,292.271,164.901,296.248,169.194z M287.242,192.336
		c1.473-1.894,2.21-4.229,2.21-6.999c0-2.77-0.782-5.105-2.353-6.999c-1.571-1.891-3.488-2.838-5.751-2.838
		s-4.135,0.947-5.608,2.838c-1.481,1.894-2.218,4.229-2.218,6.999c0,2.77,0.782,5.104,2.353,6.999
		c1.571,1.894,3.488,2.838,5.751,2.838S285.761,194.231,287.242,192.336z"/>
</g>
<g>
</g>
<g>
</g>
<g>
</g>
<g>
</g>
<g>
</g>
<g>
</g>
<g>
</g>
<g>
</g>
<g>
</g>
<g>
</g>
<g>
</g>
<g>
</g>
<g>
</g>
<g>
</g>
<g>
</g>
</svg>
